<?xml version="1.0" standalone="no"?>
<svg xmlns="http://www.w3.org/2000/svg" xmlns:xlink="http://www.w3.org/1999/xlink" height="1080px" width="1920px">
  <defs>
    <pattern id="doodad" width="40" height="40" viewBox="0 0 40 40" patternUnits="userSpaceOnUse" patternTransform="rotate(135)">
      <rect width="100%" height="100%" fill="rgba(26, 32, 44,1)"/>
      <path d="M 22 20a 1 1 0 0 0 2 0a 1 1 0 0 0-2 0m1 0a 0 0 0 0 1 0 0a 0 0 0 0 1 0 0zM 18 20a 1 1 0 0 0 2 0a 1 1 0 0 0-2 0m1 0a 0 0 0 0 1 0 0a 0 0 0 0 1 0 0z" fill="rgba(26, 32, 44, 1)"/>
      <path d="M 20 20a 1 1 0 0 0 0 2a 1 1 0 0 0 0-2zM-10-10h 60v 60h-60z" fill="rgba(44, 82, 130,1)"/>
    </pattern>
  </defs>
  <rect fill="url(#doodad)" height="200%" width="200%"/>
</svg>
